<?xml version="1.0" encoding="UTF-8" standalone="no"?>
<svg
   width="630"
   height="195"
   viewBox="0 0 630 195"
   fill="none"
   version="1.1"
   id="svg6"
   sodipodi:docname="astrality.svg"
   inkscape:version="1.4 (e7c3feb100, 2024-10-09)"
   inkscape:export-filename="../astrality.png"
   inkscape:export-xdpi="96"
   inkscape:export-ydpi="96"
   xmlns:inkscape="http://www.inkscape.org/namespaces/inkscape"
   xmlns:sodipodi="http://sodipodi.sourceforge.net/DTD/sodipodi-0.dtd"
   xmlns:xlink="http://www.w3.org/1999/xlink"
   xmlns="http://www.w3.org/2000/svg"
   xmlns:svg="http://www.w3.org/2000/svg">
  <sodipodi:namedview
     id="namedview6"
     pagecolor="#505050"
     bordercolor="#ffffff"
     borderopacity="1"
     inkscape:showpageshadow="0"
     inkscape:pageopacity="0"
     inkscape:pagecheckerboard="1"
     inkscape:deskcolor="#d1d1d1"
     inkscape:zoom="1.0168869"
     inkscape:cx="229.62239"
     inkscape:cy="181.43611"
     inkscape:window-width="1906"
     inkscape:window-height="970"
     inkscape:window-x="6"
     inkscape:window-y="6"
     inkscape:window-maximized="1"
     inkscape:current-layer="layer1"
     showgrid="false"
     inkscape:export-bgcolor="#16161600" />
  <defs
     id="defs6">
    <linearGradient
       id="linearGradient15"
       inkscape:collect="always">
      <stop
         style="stop-color:#f7f6fb;stop-opacity:1;"
         offset="0"
         id="stop16" />
      <stop
         style="stop-color:#f7f6fb;stop-opacity:0;"
         offset="1"
         id="stop17" />
    </linearGradient>
    <linearGradient
       id="paint0_linear_2781_103"
       x1="88.6116"
       y1="63.4532"
       x2="57.6725"
       y2="178.92"
       gradientUnits="userSpaceOnUse"
       gradientTransform="matrix(0.49701901,0,0,0.49701901,484.16391,13.085749)">
      <stop
         stop-color="#866EFF"
         id="stop3" />
      <stop
         offset="1"
         stop-color="#9786ED"
         id="stop4" />
    </linearGradient>
    <radialGradient
       id="paint1_radial_2781_103"
       cx="0"
       cy="0"
       r="1"
       gradientUnits="userSpaceOnUse"
       gradientTransform="matrix(-41.619787,11.151988,-11.936097,-44.546121,68.831223,97.771538)">
      <stop
         stop-color="#866EFF"
         id="stop5" />
      <stop
         offset="1"
         stop-color="#9786ED"
         id="stop6" />
    </radialGradient>
    <linearGradient
       inkscape:collect="always"
       xlink:href="#linearGradient15"
       id="linearGradient17"
       x1="116.83981"
       y1="101.82968"
       x2="522.05591"
       y2="101.82968"
       gradientUnits="userSpaceOnUse" />
    <filter
       style="color-interpolation-filters:sRGB;"
       inkscape:label="Drop Shadow"
       id="filter16"
       x="0"
       y="0"
       width="1.0123391"
       height="1.0538051">
      <feFlood
         result="flood"
         in="SourceGraphic"
         flood-opacity="1.000000"
         flood-color="rgb(139,117,250)"
         id="feFlood15" />
      <feGaussianBlur
         result="blur"
         in="SourceGraphic"
         stdDeviation="0.000000"
         id="feGaussianBlur15" />
      <feOffset
         result="offset"
         in="blur"
         dx="5.000000"
         dy="5.000000"
         id="feOffset15" />
      <feComposite
         result="comp1"
         operator="in"
         in="flood"
         in2="offset"
         id="feComposite15" />
      <feComposite
         result="comp2"
         operator="over"
         in="SourceGraphic"
         in2="comp1"
         id="feComposite16" />
    </filter>
  </defs>
  <g
     inkscape:groupmode="layer"
     id="layer1"
     inkscape:label="Layer 1"
     transform="matrix(1.1071595,0,0,1.1071595,11.835737,-10.448052)">
    <path
       fill-rule="evenodd"
       clip-rule="evenodd"
       d="m 105.6079,78.15307 c 8.69807,-5.849713 20.12558,-12.44777 34.54676,-20.774122 -14.42118,8.326352 -25.84869,14.924409 -35.26438,19.531873 -2.50609,-4.191472 -5.786692,-7.866693 -9.668462,-10.90785 -4.14676,-3.250539 -8.944031,-5.604556 -13.988295,-7.038474 -5.065005,-1.357548 -10.453231,-1.814223 -15.648472,-1.150044 -5.035688,0.614334 -9.946146,2.16375 -14.361802,4.601614 -5.826654,-8.680181 -12.398754,-20.063669 -20.680343,-34.407625 8.279471,14.340278 14.850336,25.721271 19.454742,35.107046 -4.30748,2.529239 -8.159048,5.919116 -11.283002,9.953793 -3.193579,4.243089 -5.625056,9.019762 -7.00275,14.161258 -1.377697,5.141499 -1.660253,10.495109 -1.016803,15.766281 0.698004,4.91244 2.284907,9.76938 4.689583,14.07441 -8.655796,5.79448 -19.975666,12.32971 -34.2120269,20.5499 14.2389119,-8.22229 25.5606329,-14.75801 34.9075179,-19.35695 2.688367,4.42727 6.212344,8.29785 10.258367,11.37855 4.243881,3.19336 9.061778,5.47105 14.126785,6.8286 5.085623,1.28121 10.417518,1.63969 15.633373,0.89919 4.945525,-0.63267 9.716164,-2.28057 14.042195,-4.73265 5.817651,8.67409 12.379423,20.03911 20.643803,34.35369 -8.26786,-14.32073 -14.831752,-25.68942 -19.435092,-35.06699 8.716952,-5.35488 15.307102,-14.06114 17.869722,-23.9257 2.73189,-9.892925 1.43442,-20.865778 -3.61142,-29.8458 z m -1.07423,-1.067394 c -2.51238,-4.155796 -5.857912,-7.749899 -9.665632,-10.684865 -4.1107,-3.074691 -8.831587,-5.409522 -13.840132,-6.668908 -5.0089,-1.260709 -10.187335,-1.578168 -15.305856,-0.893488 -4.796826,0.670714 -9.538956,2.250073 -13.777163,4.644635 7.962471,11.677936 14.579576,18.22179 22.390167,20.315015 7.942711,2.128631 17.119264,-0.347212 30.198616,-6.712389 z M 50.572455,64.29829 c -8.438416,5.249091 -14.821347,13.69873 -17.325677,23.34375 -2.614777,9.462197 -1.368199,19.95871 3.232385,28.69126 11.782409,-8.0144 18.380426,-14.65664 20.483176,-22.504617 2.09183,-7.806818 -0.26445,-16.805108 -6.389884,-29.530393 z m -13.337281,53.4015 c 2.480949,4.27893 5.776318,8.07482 9.733971,11.12538 4.090298,3.15238 8.734257,5.46535 13.701791,6.87875 4.988282,1.33704 10.223057,1.75269 15.320824,1.14437 4.859809,-0.57995 9.683684,-2.14015 13.983313,-4.45771 -8.228704,-12.22544 -14.979317,-19.04507 -22.98276,-21.19 -7.852766,-2.10317 -16.912133,0.29313 -29.757139,6.49921 z m 53.993184,13.97687 c -6.476293,-13.24304 -9.007874,-22.50024 -6.863105,-30.50534 2.128271,-7.94404 8.861945,-14.652363 20.915747,-22.797544 2.47584,4.38509 4.18533,9.258748 4.85248,14.243177 0.76102,5.139128 0.40191,10.470767 -0.9349,15.458287 -1.41307,4.96829 -3.76782,9.76548 -6.92002,13.85587 -3.004862,3.89938 -6.822782,7.2066 -11.050202,9.74555 z"
       fill="url(#paint1_radial_2781_103)"
       id="path2"
       style="display:inline;fill:url(#paint1_radial_2781_103);stroke-width:1.36787" />
    <path
       d="m 160.14116,75.899999 h -15.552 v 2.496 c -3.456,-2.208 -7.68,-3.552 -12.768,-3.552 -12.576,0 -23.136,10.368 -23.136,24.288 0,13.824001 10.56,24.288001 23.136,24.288001 5.088,0 9.312,-1.344 12.768,-3.552 v 2.592 h 15.552 z m -25.248,34.752001 c -6.336,0 -10.944,-5.088 -10.944,-11.520001 0,-6.432 4.608,-11.616 10.944,-11.616 3.456,0 6.816,1.056 9.696,4.416 V 106.332 c -2.88,3.36 -6.24,4.32 -9.696,4.32 z m 32.64005,-4.224 c 0.96,12.384 10.848,17.472 23.04,17.472 12.096,0 21.792,-4.992 21.792,-15.744 0,-8.256001 -5.76,-12.480001 -14.496,-14.112001 l -8.736,-1.44 c -3.648,-0.672 -4.8,-2.112 -4.8,-3.648 0,-1.824 1.824,-3.36 5.856,-3.36 4.32,0 7.584,1.632 7.872,5.184 h 13.824 c -0.672,-12.288 -11.904,-16.128 -21.792,-16.128 -12.384,0 -20.736,5.76 -20.736,15.552 0,8.16 5.568,12.672001 13.632,14.016001 l 9.408,1.632 c 3.072,0.48 4.512,1.728 4.512,3.264 0,2.016 -2.496,3.264 -6.624,3.264 -4.896,0 -8.256,-1.824 -8.928,-5.856 z m 88.79999,2.016 c -3.456,0.672 -6.048,1.152 -8.256,1.152 -4.608,0 -7.296,-2.304 -7.296,-7.008 V 89.243999 h 15.84 v -13.344 h -15.84 v -15.84 h -15.552 v 15.84 h -9.12 v 13.344 h 9.12 V 103.068 c 0,12.576 7.488,20.832 18.72,20.832 4.608,0 8.064,-0.384 14.112,-2.304 z m 41.08794,-33.312001 c -6.912,0 -11.904,2.208 -16.032,5.76 v -4.992 h -15.552 V 122.46 h 15.552 V 95.867999 c 3.648,-3.648 8.448,-5.664 16.032,-5.952 z m 55.68004,0.768 h -15.552 v 2.496 c -3.456,-2.208 -7.68,-3.552 -12.768,-3.552 -12.576,0 -23.136,10.368 -23.136,24.288 0,13.824001 10.56,24.288001 23.136,24.288001 5.088,0 9.312,-1.344 12.768,-3.552 v 2.592 h 15.552 z m -25.248,34.752001 c -6.336,0 -10.944,-5.088 -10.944,-11.520001 0,-6.432 4.608,-11.616 10.944,-11.616 3.456,0 6.816,1.056 9.696,4.416 V 106.332 c -2.88,3.36 -6.24,4.32 -9.696,4.32 z m 51.36005,-56.352001 h -15.552 V 122.46 h 15.552 z m 18.72007,14.304 c 4.992,0 9.12,-3.744 9.12,-8.736 0,-5.088 -4.128,-8.832 -9.12,-8.832 -5.088,0 -9.12,3.744 -9.12,8.832 0,4.992 4.032,8.736 9.12,8.736 z m 7.872,7.296 h -15.552 V 122.46 h 15.552 z M 452.26924,108.444 c -3.456,0.672 -6.048,1.152 -8.256,1.152 -4.608,0 -7.296,-2.304 -7.296,-7.008 V 89.243999 h 15.84 v -13.344 h -15.84 v -15.84 h -15.552 v 15.84 h -9.12 v 13.344 h 9.12 V 103.068 c 0,12.576 7.488,20.832 18.72,20.832 4.608,0 8.064,-0.384 14.112,-2.304 z m 61.63202,-32.544001 h -16.32 l -12.096,28.704001 -13.344,-28.704001 h -16.512 l 22.08,47.136001 -8.832,20.928 h 16.32 z"
       id="text6"
       style="-inkscape-font-specification:'Campton Bold';fill:#f7f6fb;stroke-width:4;stroke-linejoin:bevel;filter:url(#filter16)"
       aria-label="astrality" />
  </g>
</svg>
