<?xml version="1.0" standalone="no"?><svg xmlns="http://www.w3.org/2000/svg" viewBox="0 0 1440 320"><path fill="#866eff" fill-opacity="1" d="M0,224L26.7,234.7C53.3,245,107,267,160,261.3C213.3,256,267,224,320,202.7C373.3,181,427,171,480,176C533.3,181,587,203,640,197.3C693.3,192,747,160,800,133.3C853.3,107,907,85,960,85.3C1013.3,85,1067,107,1120,128C1173.3,149,1227,171,1280,186.7C1333.3,203,1387,213,1413,218.7L1440,224L1440,320L1413.3,320C1386.7,320,1333,320,1280,320C1226.7,320,1173,320,1120,320C1066.7,320,1013,320,960,320C906.7,320,853,320,800,320C746.7,320,693,320,640,320C586.7,320,533,320,480,320C426.7,320,373,320,320,320C266.7,320,213,320,160,320C106.7,320,53,320,27,320L0,320Z"></path></svg>