<?xml version="1.0" standalone="no"?><svg xmlns="http://www.w3.org/2000/svg" viewBox="0 0 1440 320"><path fill="#866eff" fill-opacity="1" d="M0,32L26.7,32C53.3,32,107,32,160,74.7C213.3,117,267,203,320,234.7C373.3,267,427,245,480,229.3C533.3,213,587,203,640,170.7C693.3,139,747,85,800,53.3C853.3,21,907,11,960,10.7C1013.3,11,1067,21,1120,26.7C1173.3,32,1227,32,1280,32C1333.3,32,1387,32,1413,32L1440,32L1440,320L1413.3,320C1386.7,320,1333,320,1280,320C1226.7,320,1173,320,1120,320C1066.7,320,1013,320,960,320C906.7,320,853,320,800,320C746.7,320,693,320,640,320C586.7,320,533,320,480,320C426.7,320,373,320,320,320C266.7,320,213,320,160,320C106.7,320,53,320,27,320L0,320Z"></path></svg>